<svg id="SvgjsSvg1284" width="288" height="288" xmlns="http://www.w3.org/2000/svg" version="1.1" xmlns:xlink="http://www.w3.org/1999/xlink" xmlns:svgjs="http://svgjs.com/svgjs"><defs id="SvgjsDefs1285"></defs><g id="SvgjsG1286"><svg xmlns="http://www.w3.org/2000/svg" viewBox="0 0 225.52 225.76" width="288" height="288"><g data-name="Layer 2"><g data-name="Layer 1"><path fill="none" stroke="#a5a7aa" stroke-miterlimit="10" d="M192,114.5a79.69,79.69,0,0,1-79.69,79.7C6.59,190,6.62,39,112.31,34.81A79.69,79.69,0,0,1,192,114.5Z" class="colorStrokea5a7aa svgStroke"></path><polygon fill="#002a47" points="114.37 26.09 111.18 26.09 110.75 9.45 110.64 4.88 113.83 4.8 113.94 9.37 114.37 26.09" class="color002a47 svgShape"></polygon><path fill="#002a47" d="M116.52,7.11a4.85,4.85,0,1,1-2-6.55A4.85,4.85,0,0,1,116.52,7.11Z" class="color002a47 svgShape"></path><polygon fill="#002a47" points="112.79 199.64 115.98 199.7 116.06 216.35 116.08 220.91 112.89 220.93 112.87 216.36 112.79 199.64" class="color002a47 svgShape"></polygon><path fill="#002a47" d="M110.26,218.57a4.84,4.84,0,1,1,1.87,6.58A4.83,4.83,0,0,1,110.26,218.57Z" class="color002a47 svgShape"></path><polygon fill="#002a47" points="199.4 115.96 199.46 112.77 216.11 112.68 220.67 112.66 220.69 115.85 216.12 115.87 199.4 115.96" class="color002a47 svgShape"></polygon><path fill="#002a47" d="M218.33,118.49a4.84,4.84,0,1,1,6.58-1.88A4.84,4.84,0,0,1,218.33,118.49Z" class="color002a47 svgShape"></path><polygon fill="#002a47" points="26.13 115.89 26.06 112.7 9.42 112.61 4.85 112.59 4.83 115.78 9.41 115.8 26.13 115.89" class="color002a47 svgShape"></polygon><path fill="#002a47" d="M7.2,118.42a4.85,4.85,0,1,0-6.59-1.88A4.84,4.84,0,0,0,7.2,118.42Z" class="color002a47 svgShape"></path><polygon fill="#002a47" points="49.1 53.39 51.31 51.09 39.6 39.25 36.38 36.01 34.12 38.26 37.34 41.5 49.1 53.39" class="color002a47 svgShape"></polygon><path fill="#002a47" d="M33.92,41.79a4.84,4.84,0,1,0-3.33-6A4.83,4.83,0,0,0,33.92,41.79Z" class="color002a47 svgShape"></path><polygon fill="#002a47" points="175.44 173.3 173.23 175.6 184.94 187.43 188.15 190.67 190.42 188.43 187.2 185.18 175.44 173.3" class="color002a47 svgShape"></polygon><path fill="#002a47" d="M190.62 184.89a4.85 4.85 0 103.32 6A4.85 4.85 0 00190.62 184.89zM26.06 112.78h-.94a87.77 87.77 0 0187.66-87.66v.94A86.82 86.82 0 0026.06 112.78zM112.78 200.44v-.94a86.82 86.82 0 0086.72-86.72h.94A87.75 87.75 0 01112.78 200.44z" class="color002a47 svgShape"></path><path fill="#383838" d="M172.82,125.14l.24-9.82H151.39a39.38,39.38,0,0,1-78.57,0H51.74L51.56,123l10.37.25a51.35,51.35,0,0,0,2.65,8.63L55.15,137l8.39,15.37,10.34-5.65a51.24,51.24,0,0,0,6,5.74l-6.25,10.25,15,9.11L95.23,161a50,50,0,0,0,7.65,2l-.3,12.73,17.49.42.31-13a53.31,53.31,0,0,0,7.6-1.84l6.12,11.21,15.37-8.39-6-11a52.33,52.33,0,0,0,6-5.43L159.82,154l9.1-14.95-9.81-6a50.05,50.05,0,0,0,2.8-8.22Z" class="color383838 svgShape"></path><path fill="#383838" d="M138.84,115.32a26.88,26.88,0,0,1-53.48,0H79.7a32.52,32.52,0,0,0,64.81,0Z" class="color383838 svgShape"></path><line x1="192.8" x2="31.81" y1="115.32" y2="115.32" fill="#f46300"></line><path fill="#f46300" d="M107.76 88.52a9 9 0 00-6.91-3.21c-4.44 0-8 3-8 6.59H91.47c0-3.9 3.37-7.14 7.77-7.79-.35-2.8-1.65-4.77-3.72-5.56a6.94 6.94 0 00-7.08 1.63 4.83 4.83 0 00-1.11 5.39l.84 2.15-1.85-1.38c-3-2.28-6.29-2.75-9.13-1.33a8.79 8.79 0 00-4.64 7.88A6.35 6.35 0 0078 99.17 4.49 4.49 0 0083.21 96l1.26.41a5.74 5.74 0 01-5.62 4.15 7.09 7.09 0 01-1.1-.09 7.68 7.68 0 01-6.53-7.59 10.1 10.1 0 015.38-9.06 9.42 9.42 0 019.06.5 6.11 6.11 0 011.84-5.09 8.3 8.3 0 013-1.89c-2.19-3.34-2.15-6.87.2-9.58s6-3.52 8.51-2.13l-.65 1.16c-2-1.1-5-.29-6.85 1.84-1 1.13-2.87 4.16.13 8.35a7.69 7.69 0 014.15.32c1.52.58 4 2.24 4.56 6.69l.3 0a10.29 10.29 0 017.92 3.68 14.05 14.05 0 012.62 4.89V77.84c0-8.46-2.73-9.84-2.75-9.85l-.79-.37.55-.67a6.71 6.71 0 001.06-7.53A12.08 12.08 0 0099 52.84c-3.78 0-6.84 2.23-8.62 6.29l-.53 1.21-.66-1.15c-1.1-1.95-2.64-3-4.33-3-2.52 0-4.79 2.35-5.05 5.24l-.09 1.05-.91-.53A5.48 5.48 0 0076 61.2a7 7 0 00-6.81 8.56l.14.81-1.11 0a8.74 8.74 0 00-6.54 3.21 10.09 10.09 0 00-2.34 8.1l.13.85h-.06c.54 4 5.36 5.23 5.41 5.24l3.15.76-3.2.54C60.28 90 60 94.29 60 96.1l-.66.11h-.66c-.07-1.52.09-6 3.93-7.71a7.52 7.52 0 01-4.54-5.93 5.45 5.45 0 00-4.78 2.51c-1.22 2-1.18 4.61.12 7.3l.21.43-.34.34a7.25 7.25 0 00-1.87 8 6.68 6.68 0 006.3 4.29 9.38 9.38 0 004.42-1.22l1.21-.66L63.13 105h0a.87.87 0 00.3.5c.63.66 2.63 1.77 8.89 1.77 6.56 0 15.73.19 16.36.2 1.53-.12 5.77-.87 5.77-2.7v-2.12l1.21 1.74c1 1.47 3.91 2.58 6.72 2.58h0a8.89 8.89 0 006.12-2.2 9.09 9.09 0 002.57-5C111.05 94.9 109.9 91 107.76 88.52zM69 82l-1.32-.13a6.86 6.86 0 014.24-5.38 8.38 8.38 0 018.31.59l-.76 1.09a7.07 7.07 0 00-7-.48A5.56 5.56 0 0069 82zM113.54 99.71a9 9 0 002.56 5 8.89 8.89 0 006.12 2.2h0c2.81 0 5.69-1.11 6.71-2.58l1.21-1.74v2.12c0 1.83 4.24 2.58 5.78 2.7.62 0 9.79-.2 16.35-.2 6.26 0 8.26-1.11 8.9-1.77a1.06 1.06 0 00.3-.5h0l-.25-1.36 1.22.66a9.32 9.32 0 004.42 1.22 6.7 6.7 0 006.3-4.29 7.26 7.26 0 00-1.87-8l-.35-.34.21-.43c1.3-2.69 1.34-5.35.12-7.3a5.45 5.45 0 00-4.78-2.51A7.5 7.5 0 01162 88.5c3.84 1.75 4 6.19 3.94 7.71h-.67l-.66-.11c.08-1.81-.23-6.1-4.76-6.87l-3.19-.54 3.15-.76s4.86-1.22 5.41-5.24h-.07l.13-.85a10.09 10.09 0 00-2.34-8.1 8.73 8.73 0 00-6.54-3.21l-1.11 0 .14-.81a7 7 0 00-6.81-8.56 5.51 5.51 0 00-2.82.73l-.9.53-.1-1.05c-.26-2.89-2.52-5.24-5-5.24-1.7 0-3.24 1.07-4.34 3l-.66 1.15-.53-1.21c-1.78-4.06-4.84-6.29-8.62-6.29a12.08 12.08 0 00-10.42 6.58A6.7 6.7 0 00116.22 67l.54.67L116 68s-2.76 1.39-2.76 9.85V92.55a14.05 14.05 0 012.62-4.89A10.29 10.29 0 01123.76 84l.3 0c.54-4.45 3-6.11 4.56-6.69a7.69 7.69 0 014.15-.32c3-4.19 1.11-7.22.14-8.35-1.86-2.13-4.87-2.94-6.86-1.84l-.64-1.16c2.52-1.39 6.25-.45 8.5 2.13s2.39 6.24.2 9.58a8.13 8.13 0 013 1.89A6.11 6.11 0 01139 84.33a9.42 9.42 0 019.06-.5 10.1 10.1 0 015.38 9.06 7.67 7.67 0 01-6.53 7.59 6.89 6.89 0 01-1.1.09 5.75 5.75 0 01-5.62-4.15l1.27-.41a4.48 4.48 0 005.25 3.16 6.35 6.35 0 005.4-6.28A8.79 8.79 0 00147.42 85c-2.83-1.42-6.07-1-9.13 1.33l-1.84 1.38.83-2.15a4.81 4.81 0 00-1.11-5.39 6.93 6.93 0 00-7.08-1.63c-2.07.79-3.37 2.76-3.72 5.56 4.41.65 7.77 3.89 7.77 7.79h-1.33c0-3.63-3.61-6.59-8-6.59a9 9 0 00-6.91 3.21C114.71 91 113.57 94.9 113.54 99.71zm38.6-22a7.08 7.08 0 00-7 .48l-.76-1.09a8.4 8.4 0 018.32-.59 6.85 6.85 0 014.23 5.38l-1.32.13A5.54 5.54 0 00152.14 77.69z" class="colorf46300 svgShape"></path></g></g></svg></g></svg>