<svg version="1.1" id="Layer_1" xmlns="http://www.w3.org/2000/svg" xmlns:xlink="http://www.w3.org/1999/xlink" x="0px" y="0px"
	 width="100%" viewBox="0 0 512 512" enable-background="new 0 0 512 512" xml:space="preserve">
<path fill="#000000" opacity="1.000000" stroke="none" 
	d="
M292.000000,513.000000 
	C194.690292,513.000000 97.880577,513.000000 1.035435,513.000000 
	C1.035435,342.398590 1.035435,171.797195 1.035435,1.097890 
	C171.559723,1.097890 342.119537,1.097890 512.839661,1.097890 
	C512.839661,171.666550 512.839661,342.333252 512.839661,513.000000 
	C439.463837,513.000000 365.981903,513.000000 292.000000,513.000000 
M60.979275,297.965485 
	C60.989590,298.798767 60.848038,299.667389 61.032681,300.460083 
	C64.637802,315.937317 69.514137,331.033569 76.666222,345.211487 
	C90.229874,372.099243 108.394455,395.276459 132.295029,413.996918 
	C150.085205,427.931305 169.362167,438.828430 190.640076,446.239105 
	C205.102478,451.276031 219.882767,454.712006 235.226379,456.127167 
	C253.930511,457.852325 272.656128,458.035797 291.032349,454.786041 
	C313.372437,450.835266 334.701141,443.490631 354.711487,432.203125 
	C379.083679,418.455231 399.718689,400.588074 416.688324,378.582336 
	C427.773163,364.207886 436.515564,348.349670 443.312286,331.400604 
	C450.688263,313.006958 455.321655,293.934143 456.757660,274.313995 
	C457.696869,261.481689 457.035431,248.416153 455.812622,235.576828 
	C454.755035,224.472290 452.148987,213.483398 449.737427,202.551498 
	C448.281128,195.949905 445.889984,189.554565 444.252594,182.476654 
	C448.598572,178.107864 453.184113,173.948517 457.231659,169.318832 
	C462.643982,163.128143 468.055725,157.007858 470.314484,148.586151 
	C475.185455,130.425110 469.924408,115.445564 455.554749,104.390877 
	C443.055603,94.775185 428.388092,93.994164 414.184296,100.668800 
	C407.925171,103.610092 402.764130,108.888092 397.083099,113.121170 
	C391.770264,108.597847 386.193115,103.678078 380.434570,98.980743 
	C366.475800,87.594444 350.788666,79.076584 334.322357,72.001930 
	C316.442291,64.319862 297.792603,59.570236 278.347412,57.848049 
	C259.594330,56.187168 240.876266,56.245766 222.330338,59.368114 
	C197.451370,63.556671 174.277359,72.645668 152.715424,85.705658 
	C131.088882,98.804779 112.611778,115.581741 97.226082,135.557999 
	C86.287483,149.760315 77.705666,165.474976 70.970825,182.121887 
	C62.339767,203.455856 57.167240,225.574524 57.078426,248.664124 
	C57.035702,259.772644 57.757572,270.884125 58.008713,282.844055 
	C58.988140,287.606628 59.967567,292.369202 60.979275,297.965485 
z"/>
<path fill="#02496C" opacity="1.000000" stroke="none" 
	d="
M58.133202,281.994263 
	C57.757572,270.884125 57.035702,259.772644 57.078426,248.664124 
	C57.167240,225.574524 62.339767,203.455856 70.970825,182.121887 
	C77.705666,165.474976 86.287483,149.760315 97.226082,135.557999 
	C112.611778,115.581741 131.088882,98.804779 152.715424,85.705658 
	C174.277359,72.645668 197.451370,63.556671 222.330338,59.368114 
	C240.876266,56.245766 259.594330,56.187168 278.347412,57.848049 
	C297.792603,59.570236 316.442291,64.319862 334.322357,72.001930 
	C350.788666,79.076584 366.475800,87.594444 380.434570,98.980743 
	C386.193115,103.678078 391.770264,108.597847 397.083099,113.121170 
	C402.764130,108.888092 407.925171,103.610092 414.184296,100.668800 
	C428.388092,93.994164 443.055603,94.775185 455.554749,104.390877 
	C469.924408,115.445564 475.185455,130.425110 470.314484,148.586151 
	C468.055725,157.007858 462.643982,163.128143 457.231659,169.318832 
	C453.184113,173.948517 448.598572,178.107864 443.735199,182.701996 
	C438.113831,187.985703 433.009827,193.044052 427.597290,198.197968 
	C418.138947,207.464417 408.989166,216.635315 399.531799,225.940475 
	C396.466705,228.936615 393.709198,231.798477 390.626404,234.783630 
	C384.756409,240.588638 379.211639,246.270325 373.365479,252.066833 
	C369.974030,255.388275 366.883942,258.594879 363.474243,261.957764 
	C360.320465,269.356964 357.360321,276.553528 354.674988,283.851227 
	C345.105042,309.858612 335.628540,335.900391 325.925232,362.243103 
	C324.714081,365.598236 323.694397,368.639374 322.416229,371.929596 
	C317.584015,384.454803 313.010284,396.730957 307.781647,410.764832 
	C303.664154,406.138824 300.388336,402.458435 296.986511,398.473572 
	C293.965729,395.407349 291.070984,392.645599 288.013611,389.587891 
	C281.935272,383.490051 276.019562,377.688141 269.947632,371.592590 
	C266.544434,368.190430 263.297394,365.081879 259.958954,361.648987 
	C252.853180,354.300629 245.876465,347.238464 238.814606,340.262512 
	C230.594238,332.142181 222.299316,324.097321 213.940506,315.695068 
	C210.564850,312.226837 207.285446,309.083252 203.858307,305.644348 
	C188.711975,290.586670 173.713379,275.824310 158.313675,260.667145 
	C160.586472,259.782440 161.812698,259.282715 163.054398,258.824982 
	C209.128845,241.840195 255.207947,224.867966 301.269562,207.848465 
	C303.261414,207.112488 305.475555,206.337448 306.936340,204.913803 
	C313.837341,198.188171 320.512054,191.230286 327.210510,184.300690 
	C327.153595,184.246201 327.036346,184.351532 327.385193,184.254395 
	C328.021179,183.779343 328.308380,183.401413 328.885315,182.913513 
	C339.168213,172.814392 349.161377,162.825256 359.730072,152.260773 
	C340.674927,152.260773 322.798859,152.260773 304.807465,152.260773 
	C306.288116,164.697525 307.736969,176.867065 309.004028,189.354813 
	C305.564209,190.740982 302.306183,191.808960 299.038910,192.442902 
	C297.518250,178.728333 296.006775,165.447830 294.495148,152.165802 
	C269.152191,152.165802 244.738846,152.165802 219.851364,152.165802 
	C216.000580,176.346252 213.688812,200.570801 212.571198,225.098419 
	C208.972488,226.428040 205.697205,227.609894 202.418030,228.387772 
	C204.380112,202.747925 206.346100,177.512039 208.321609,152.153824 
	C187.604492,152.153824 166.494095,152.153824 145.262451,152.153824 
	C129.837219,183.492157 123.136909,216.792831 122.056946,252.103012 
	C127.826797,252.103012 133.271072,252.103012 138.540924,252.400208 
	C129.248657,255.859497 120.130806,259.021576 110.549225,262.103394 
	C99.165138,262.023102 88.244789,262.023102 77.122498,262.023102 
	C77.387390,266.708405 77.620049,270.823425 77.497398,275.015808 
	C70.805801,277.393524 64.469498,279.693878 58.133202,281.994263 
M347.989777,101.980667 
	C347.724854,102.060020 347.459961,102.139374 347.195038,102.218712 
	C347.416229,102.524750 347.637390,102.830780 348.090149,103.767029 
	C356.742889,115.057289 365.395660,126.347542 373.880005,137.418076 
	C376.505432,134.936874 379.723572,131.895538 384.034607,127.821342 
	C371.854828,119.057693 360.177307,110.655411 347.989777,101.980667 
M164.895828,102.617188 
	C147.598083,112.974892 132.354721,125.709328 118.912827,142.001038 
	C125.562096,142.001038 131.316681,142.099808 137.061646,141.909103 
	C138.084091,141.875168 139.361404,140.850403 140.023026,139.926529 
	C148.780151,127.698357 157.448151,115.406364 166.675034,102.920723 
	C166.691849,102.660744 166.708649,102.400772 166.725464,102.140793 
	C166.318237,102.182175 165.911011,102.223549 164.895828,102.617188 
M253.698395,246.844833 
	C245.153442,249.986618 236.608490,253.128403 227.349854,256.360046 
	C222.867508,258.135590 218.385162,259.911163 213.139771,261.812683 
	C207.330231,263.900757 201.520676,265.988800 196.213058,267.896454 
	C231.197067,302.877228 265.874329,337.551270 300.748871,372.422638 
	C302.507538,367.331482 304.381287,361.907196 306.762329,355.932220 
	C311.461243,342.950500 316.160126,329.968781 321.238586,316.359589 
	C322.351990,313.276764 323.465393,310.193939 324.928802,306.525360 
	C328.476044,296.762726 332.023285,287.000122 335.940643,276.657837 
	C337.012695,273.452332 338.084747,270.246826 339.678192,266.558777 
	C340.757477,263.369812 341.836731,260.180847 343.313995,256.441406 
	C343.064850,255.317093 343.168976,253.877655 342.500061,253.127792 
	C340.531769,250.921280 338.256805,248.988297 335.833252,246.331406 
	C329.358978,239.860062 322.952179,233.318283 316.343292,226.987442 
	C315.255493,225.945389 312.969513,224.973541 311.762665,225.412781 
	C292.593140,232.389740 273.509338,239.602310 253.698395,246.844833 
M326.289276,214.155884 
	C324.675598,215.309937 323.061920,216.463974 322.141693,217.122101 
	C332.226257,227.224991 341.462372,236.477890 350.894012,245.926697 
	C351.821503,244.911911 353.034882,243.584320 354.832672,241.933670 
	C380.260590,216.517532 405.689575,191.102463 431.115448,165.684311 
	C436.059357,160.741913 441.140350,155.926163 445.898132,150.810257 
	C456.679626,139.217102 451.085754,120.914993 435.716827,117.488716 
	C428.062622,115.782326 421.764374,118.502205 416.314117,123.970543 
	C387.409119,152.971436 358.434509,181.902954 329.497986,210.872467 
	C328.572205,211.799316 327.798065,212.877670 326.289276,214.155884 
M226.175476,121.786354 
	C224.697952,128.360062 223.220428,134.933762 221.694382,141.723297 
	C245.453445,141.723297 268.662720,141.723297 292.262146,141.723297 
	C288.485443,123.372124 283.947662,105.688599 275.819885,89.017502 
	C271.506378,80.169891 265.729919,74.903641 255.299896,76.998077 
	C254.658478,77.126877 253.953522,77.137123 253.309464,77.024048 
	C247.686050,76.036751 244.437317,78.952316 241.615341,83.421913 
	C234.268158,95.058723 230.121811,107.925102 226.175476,121.786354 
M87.770325,196.280014 
	C81.110870,214.113739 77.944550,232.593964 77.145363,251.699310 
	C88.931007,251.699310 100.325386,251.699310 111.883583,251.699310 
	C112.715027,217.004227 119.473450,183.845612 133.858475,152.002151 
	C127.053452,152.002151 121.053802,152.161285 115.068680,151.935364 
	C112.053444,151.821548 110.281143,152.849609 108.595764,155.360291 
	C100.144211,167.950409 93.113747,181.239670 87.770325,196.280014 
M300.456085,131.062683 
	C300.928558,133.160294 301.784363,135.256516 301.791901,137.355789 
	C301.806610,141.449615 303.826782,142.241531 307.451050,142.068863 
	C313.093903,141.800003 318.758972,141.997787 324.414642,141.997787 
	C337.138763,141.997787 349.862885,141.997772 363.377777,141.997772 
	C348.704468,117.102295 330.700623,96.614937 305.121796,84.149277 
	C298.289825,80.819748 290.067780,80.342537 281.230652,78.260559 
	C291.262054,95.389107 296.404846,112.587410 300.456085,131.062683 
M166.422241,118.934258 
	C161.159317,126.294800 155.896393,133.655350 149.931442,141.997726 
	C167.341980,141.997726 183.249329,141.997726 199.156677,141.997726 
	C210.878494,141.997742 211.007767,142.027267 213.536560,130.957413 
	C217.630966,113.034149 222.641769,95.455360 231.640930,78.614220 
	C222.530884,80.597061 213.215179,82.151405 205.094162,86.138916 
	C189.843353,93.627213 177.646896,105.291046 166.422241,118.934258 
z"/>
<path fill="#89B7DD" opacity="1.000000" stroke="none" 
	d="
M427.905853,198.102402 
	C433.009827,193.044052 438.113831,187.985703 443.568359,182.996948 
	C445.889984,189.554565 448.281128,195.949905 449.737427,202.551498 
	C452.148987,213.483398 454.755035,224.472290 455.812622,235.576828 
	C457.035431,248.416153 457.696869,261.481689 456.757660,274.313995 
	C455.321655,293.934143 450.688263,313.006958 443.312286,331.400604 
	C436.515564,348.349670 427.773163,364.207886 416.688324,378.582336 
	C399.718689,400.588074 379.083679,418.455231 354.711487,432.203125 
	C334.701141,443.490631 313.372437,450.835266 291.032349,454.786041 
	C272.656128,458.035797 253.930511,457.852325 235.226379,456.127167 
	C219.882767,454.712006 205.102478,451.276031 190.640076,446.239105 
	C169.362167,438.828430 150.085205,427.931305 132.295029,413.996918 
	C108.394455,395.276459 90.229874,372.099243 76.666222,345.211487 
	C69.514137,331.033569 64.637802,315.937317 61.032681,300.460083 
	C60.848038,299.667389 60.989590,298.798767 61.305283,297.407471 
	C67.537094,294.672607 73.442902,292.495789 79.824699,290.143494 
	C80.338608,292.178497 80.771477,293.734833 81.123238,295.309296 
	C86.229485,318.163696 95.274345,339.309113 108.648201,358.557312 
	C109.545631,359.848907 110.909698,361.691498 112.123177,361.744080 
	C119.152641,362.048615 126.202057,361.892853 133.540039,361.892853 
	C133.202744,360.517334 133.139999,359.844391 132.879578,359.259460 
	C122.359581,335.631989 116.217163,310.875946 113.482269,285.196106 
	C112.644478,277.329407 113.536736,276.032257 122.078995,275.388489 
	C122.275612,275.645538 122.601593,275.887238 122.639366,276.167786 
	C122.816490,277.483215 122.918335,278.808990 123.039864,280.131714 
	C125.526962,307.201080 131.785248,333.275330 143.304306,358.009491 
	C144.699829,361.006012 146.354675,362.110962 149.703461,362.079254 
	C167.859314,361.907440 186.017685,362.006927 204.175125,361.981262 
	C205.745224,361.979065 207.314987,361.746429 209.283325,361.588928 
	C208.962006,358.676056 208.675522,356.388153 208.461975,354.093475 
	C206.968216,338.042999 205.489563,321.991089 204.006042,305.939667 
	C207.285446,309.083252 210.564850,312.226837 214.020935,316.103333 
	C215.791473,330.152466 217.503799,343.456177 218.905334,356.792603 
	C219.313126,360.672882 220.628510,362.182465 224.729324,362.090515 
	C236.497971,361.826630 248.276031,361.982452 260.050385,361.973328 
	C263.297394,365.081879 266.544434,368.190430 269.475037,371.640839 
	C253.574829,371.982697 237.991074,371.982697 222.469330,371.982697 
	C222.274933,373.104126 222.042709,373.614868 222.129242,374.064209 
	C225.531265,391.733002 230.275009,408.952454 238.192581,425.238739 
	C242.394974,433.883026 248.122971,439.019226 258.344330,437.029358 
	C259.788452,436.748199 261.348236,436.803833 262.821442,436.980042 
	C266.615784,437.433716 268.992981,435.650024 271.037201,432.633881 
	C279.860962,419.614929 284.671326,405.018188 288.176208,389.883820 
	C291.070984,392.645599 293.965729,395.407349 296.701355,398.719238 
	C292.031921,411.100586 287.521698,422.931824 282.909668,435.030060 
	C293.597717,433.327759 304.268250,431.762909 313.838684,425.515869 
	C325.944458,417.613922 336.716766,408.272736 345.868347,397.203430 
	C352.149963,389.605499 357.560455,381.287354 363.360321,373.291138 
	C363.030457,372.754272 362.700562,372.217407 362.370697,371.680542 
	C349.138702,371.680542 335.906708,371.680542 322.674713,371.680542 
	C323.694397,368.639374 324.714081,365.598236 326.386047,362.260437 
	C339.514374,361.975372 351.992767,361.858856 364.465027,362.082794 
	C367.856079,362.143646 369.400391,360.917389 370.785797,357.936829 
	C381.982452,333.848663 388.136719,308.443573 390.844727,282.137726 
	C391.515686,275.619995 391.630524,269.045013 392.040283,261.801483 
	C382.028259,261.801483 372.911072,261.801483 363.793884,261.801483 
	C366.883942,258.594879 369.974030,255.388275 373.855042,252.083435 
	C380.216980,251.985214 385.787964,251.985214 392.119354,251.985214 
	C391.699249,245.752167 391.325439,240.206238 390.951660,234.660324 
	C393.709198,231.798477 396.466705,228.936615 399.647339,226.359772 
	C400.877686,235.013229 401.684906,243.381653 402.469025,251.510590 
	C414.182861,251.510590 425.402618,251.510590 437.317261,251.510590 
	C436.340302,243.045593 435.832062,235.062042 434.412109,227.244080 
	C432.634918,217.459061 430.108734,207.810104 427.905853,198.102402 
M165.737061,411.889465 
	C166.052963,412.015411 166.368851,412.141327 166.684753,412.267273 
	C166.531708,411.780121 166.378677,411.292999 165.917480,410.208862 
	C157.425735,398.317352 148.961105,386.406219 140.396713,374.567261 
	C139.614243,373.485626 138.222076,372.196198 137.063141,372.145569 
	C131.354324,371.896179 125.628662,372.032196 118.772079,372.032196 
	C132.678360,388.500519 147.684860,401.624756 165.737061,411.889465 
M349.076233,411.327393 
	C366.605133,401.292206 381.572998,388.327454 395.216064,372.002594 
	C388.481384,372.002594 383.152069,371.855042 377.841217,372.102875 
	C376.455292,372.167542 374.657867,373.123444 373.844086,374.246033 
	C365.067902,386.353302 356.450745,398.575836 347.299072,410.895752 
	C347.119751,411.162598 346.940430,411.429443 346.761139,411.696289 
	C347.299774,411.617828 347.838379,411.539337 349.076233,411.327393 
M394.412445,361.997803 
	C401.131897,363.355682 404.872070,360.082855 408.349823,354.530304 
	C422.998535,331.142212 432.297638,305.920258 435.717865,278.554504 
	C436.385376,273.213531 436.539062,267.808289 436.929779,262.432404 
	C424.808929,262.432404 413.583649,262.432404 403.275055,262.432404 
	C400.812286,279.756104 399.386841,296.737885 395.773407,313.240570 
	C392.174591,329.676605 386.379974,345.631866 381.488403,361.997803 
	C385.148529,361.997803 389.296844,361.997803 394.412445,361.997803 
M217.581100,398.889893 
	C215.800751,391.455017 213.774094,384.066956 212.349426,376.564514 
	C211.689301,373.088165 210.454285,371.891785 206.875244,371.927002 
	C189.571091,372.097168 172.264343,371.993927 154.958588,372.025299 
	C153.767685,372.027466 152.577362,372.336945 151.232025,372.525146 
	C161.345108,393.758667 187.582352,420.686218 208.084732,429.674988 
	C215.280899,432.829987 223.497314,433.657928 231.137512,435.521545 
	C226.462280,422.930878 222.141922,411.295898 217.581100,398.889893 
z"/>
<path fill="#FEFEFF" opacity="1.000000" stroke="none" 
	d="
M203.858322,305.644348 
	C205.489563,321.991089 206.968216,338.042999 208.461975,354.093475 
	C208.675522,356.388153 208.962006,358.676056 209.283325,361.588928 
	C207.314987,361.746429 205.745224,361.979065 204.175125,361.981262 
	C186.017685,362.006927 167.859314,361.907440 149.703461,362.079254 
	C146.354675,362.110962 144.699829,361.006012 143.304306,358.009491 
	C131.785248,333.275330 125.526962,307.201080 123.039864,280.131714 
	C122.918335,278.808990 122.816490,277.483215 122.639366,276.167786 
	C122.601593,275.887238 122.275612,275.645538 122.078995,275.388489 
	C113.536736,276.032257 112.644478,277.329407 113.482269,285.196106 
	C116.217163,310.875946 122.359581,335.631989 132.879578,359.259460 
	C133.139999,359.844391 133.202744,360.517334 133.540039,361.892853 
	C126.202057,361.892853 119.152641,362.048615 112.123177,361.744080 
	C110.909698,361.691498 109.545631,359.848907 108.648201,358.557312 
	C95.274345,339.309113 86.229485,318.163696 81.123238,295.309296 
	C80.771477,293.734833 80.338608,292.178497 79.824699,290.143494 
	C73.442902,292.495789 67.537094,294.672607 61.289146,296.990601 
	C59.967567,292.369202 58.988140,287.606628 58.070957,282.419159 
	C64.469498,279.693878 70.805801,277.393524 77.846802,274.891022 
	C89.371986,270.520477 100.192474,266.352051 111.012970,262.183655 
	C120.130806,259.021576 129.248657,255.859497 138.931870,252.338486 
	C160.472137,244.250275 181.447037,236.520996 202.421936,228.791718 
	C205.697205,227.609894 208.972488,226.428040 212.942749,225.051514 
	C232.523315,217.922974 251.430832,211.047989 270.285431,204.030777 
	C279.921936,200.444321 289.463593,196.603043 299.048126,192.876953 
	C302.306183,191.808960 305.564209,190.740982 309.379913,189.328384 
	C311.661163,188.477539 313.373810,187.929703 315.110535,187.473465 
	C319.156677,186.410599 323.214386,185.391830 327.267426,184.355194 
	C320.512054,191.230286 313.837341,198.188171 306.936340,204.913803 
	C305.475555,206.337448 303.261414,207.112488 301.269562,207.848465 
	C255.207947,224.867966 209.128845,241.840195 163.054398,258.824982 
	C161.812698,259.282715 160.586472,259.782440 158.313675,260.667145 
	C173.713379,275.824310 188.711975,290.586670 203.858322,305.644348 
z"/>
<path fill="#DDF4FC" opacity="1.000000" stroke="none" 
	d="
M202.418030,228.387756 
	C181.447037,236.520996 160.472137,244.250275 139.106293,252.041290 
	C133.271072,252.103012 127.826797,252.103012 122.056946,252.103012 
	C123.136909,216.792831 129.837219,183.492157 145.262451,152.153824 
	C166.494095,152.153824 187.604492,152.153824 208.321609,152.153824 
	C206.346100,177.512039 204.380112,202.747925 202.418030,228.387756 
z"/>
<path fill="#87B6DD" opacity="1.000000" stroke="none" 
	d="
M326.953247,213.885406 
	C327.798065,212.877670 328.572205,211.799316 329.497986,210.872467 
	C358.434509,181.902954 387.409119,152.971436 416.314117,123.970543 
	C421.764374,118.502205 428.062622,115.782326 435.716827,117.488716 
	C451.085754,120.914993 456.679626,139.217102 445.898132,150.810257 
	C441.140350,155.926163 436.059357,160.741913 431.115448,165.684311 
	C405.689575,191.102463 380.260590,216.517532 354.341003,241.800766 
	C352.373077,240.105667 350.914856,238.526016 349.417603,236.984222 
	C341.935089,229.279175 334.442383,221.584030 326.953247,213.885406 
M360.309540,207.303268 
	C356.893646,205.322006 353.838654,206.006897 352.881012,209.743927 
	C352.448517,211.431625 354.058197,214.270966 355.597015,215.588181 
	C356.452332,216.320312 360.187225,215.503128 360.647949,214.487610 
	C361.495148,212.620209 360.882568,210.090530 360.309540,207.303268 
M423.681702,143.473877 
	C421.557800,143.744263 419.124146,143.488419 417.428589,144.486511 
	C416.444122,145.065994 415.828491,148.611526 416.471008,149.162933 
	C418.180511,150.629974 421.102478,152.450439 422.748474,151.871887 
	C426.642761,150.503082 427.008575,147.273010 423.681702,143.473877 
z"/>
<path fill="#DEF4FC" opacity="1.000000" stroke="none" 
	d="
M299.038910,192.442886 
	C289.463593,196.603043 279.921936,200.444321 270.285431,204.030777 
	C251.430832,211.047989 232.523315,217.922974 213.266174,224.903748 
	C213.688812,200.570801 216.000580,176.346252 219.851364,152.165802 
	C244.738846,152.165802 269.152191,152.165802 294.495148,152.165802 
	C296.006775,165.447830 297.518250,178.728333 299.038910,192.442886 
z"/>
<path fill="#FCFDFD" opacity="1.000000" stroke="none" 
	d="
M324.578796,307.111115 
	C323.465393,310.193939 322.351990,313.276764 320.589233,316.675110 
	C302.966980,316.990601 285.994080,316.990601 269.021149,316.990601 
	C274.860901,324.423523 281.117218,330.558502 287.258301,336.806763 
	C293.648499,343.308502 299.927460,349.919586 306.255066,356.482880 
	C304.381287,361.907196 302.507538,367.331482 300.748871,372.422638 
	C265.874329,337.551270 231.197067,302.877228 196.213058,267.896454 
	C201.520676,265.988800 207.330231,263.900757 213.583801,262.128540 
	C215.405075,266.561829 218.623520,267.037506 222.399811,267.032867 
	C261.318726,266.985138 300.237762,267.025482 339.156769,267.041321 
	C338.084747,270.246826 337.012695,273.452332 335.251923,276.893555 
	C299.400421,277.129242 264.237640,277.129242 228.054169,277.129242 
	C229.780975,279.067749 230.690796,280.192993 231.706543,281.212708 
	C239.103836,288.639099 246.620529,295.950012 253.881027,303.507294 
	C256.414185,306.143951 259.099243,307.076294 262.687775,307.059875 
	C283.317596,306.965332 303.948364,307.072388 324.578796,307.111115 
z"/>
<path fill="#FEFEFE" opacity="1.000000" stroke="none" 
	d="
M363.474243,261.957764 
	C372.911072,261.801483 382.028259,261.801483 392.040283,261.801483 
	C391.630524,269.045013 391.515686,275.619995 390.844727,282.137726 
	C388.136719,308.443573 381.982452,333.848663 370.785797,357.936829 
	C369.400391,360.917389 367.856079,362.143646 364.465027,362.082794 
	C351.992767,361.858856 339.514374,361.975372 326.577484,361.946472 
	C335.628540,335.900391 345.105042,309.858612 354.674988,283.851227 
	C357.360321,276.553528 360.320465,269.356964 363.474243,261.957764 
z"/>
<path fill="#DDF3FB" opacity="1.000000" stroke="none" 
	d="
M226.330597,121.404922 
	C230.121811,107.925102 234.268158,95.058723 241.615341,83.421913 
	C244.437317,78.952316 247.686050,76.036751 253.309464,77.024048 
	C253.953522,77.137123 254.658478,77.126877 255.299896,76.998077 
	C265.729919,74.903641 271.506378,80.169891 275.819885,89.017502 
	C283.947662,105.688599 288.485443,123.372124 292.262146,141.723297 
	C268.662720,141.723297 245.453445,141.723297 221.694382,141.723297 
	C223.220428,134.933762 224.697952,128.360062 226.330597,121.404922 
z"/>
<path fill="#FEFEFF" opacity="1.000000" stroke="none" 
	d="
M288.013611,389.587891 
	C284.671326,405.018188 279.860962,419.614929 271.037201,432.633881 
	C268.992981,435.650024 266.615784,437.433716 262.821442,436.980042 
	C261.348236,436.803833 259.788452,436.748199 258.344330,437.029358 
	C248.122971,439.019226 242.394974,433.883026 238.192581,425.238739 
	C230.275009,408.952454 225.531265,391.733002 222.129242,374.064209 
	C222.042709,373.614868 222.274933,373.104126 222.469330,371.982697 
	C237.991074,371.982697 253.574829,371.982697 269.631226,371.934448 
	C276.019562,377.688141 281.935272,383.490051 288.013611,389.587891 
z"/>
<path fill="#DDF3FB" opacity="1.000000" stroke="none" 
	d="
M87.879395,195.901062 
	C93.113747,181.239670 100.144211,167.950409 108.595764,155.360291 
	C110.281143,152.849609 112.053444,151.821548 115.068680,151.935364 
	C121.053802,152.161285 127.053452,152.002151 133.858475,152.002151 
	C119.473450,183.845612 112.715027,217.004227 111.883583,251.699310 
	C100.325386,251.699310 88.931007,251.699310 77.145363,251.699310 
	C77.944550,232.593964 81.110870,214.113739 87.879395,195.901062 
z"/>
<path fill="#DDF3FB" opacity="1.000000" stroke="none" 
	d="
M300.314209,130.666870 
	C296.404846,112.587410 291.262054,95.389107 281.230652,78.260559 
	C290.067780,80.342537 298.289825,80.819748 305.121796,84.149277 
	C330.700623,96.614937 348.704468,117.102295 363.377777,141.997772 
	C349.862885,141.997772 337.138763,141.997787 324.414642,141.997787 
	C318.758972,141.997787 313.093903,141.800003 307.451050,142.068863 
	C303.826782,142.241531 301.806610,141.449615 301.791901,137.355789 
	C301.784363,135.256516 300.928558,133.160294 300.314209,130.666870 
z"/>
<path fill="#DDF3FB" opacity="1.000000" stroke="none" 
	d="
M166.661392,118.669769 
	C177.646896,105.291046 189.843353,93.627213 205.094162,86.138916 
	C213.215179,82.151405 222.530884,80.597061 231.640930,78.614220 
	C222.641769,95.455360 217.630966,113.034149 213.536560,130.957413 
	C211.007767,142.027267 210.878494,141.997742 199.156677,141.997726 
	C183.249329,141.997726 167.341980,141.997726 149.931442,141.997726 
	C155.896393,133.655350 161.159317,126.294800 166.661392,118.669769 
z"/>
<path fill="#DEF4FC" opacity="1.000000" stroke="none" 
	d="
M324.753784,306.818237 
	C303.948364,307.072388 283.317596,306.965332 262.687775,307.059875 
	C259.099243,307.076294 256.414185,306.143951 253.881027,303.507294 
	C246.620529,295.950012 239.103836,288.639099 231.706543,281.212708 
	C230.690796,280.192993 229.780975,279.067749 228.054169,277.129242 
	C264.237640,277.129242 299.400421,277.129242 335.066864,277.183350 
	C332.023285,287.000122 328.476044,296.762726 324.753784,306.818237 
z"/>
<path fill="#FDFEFE" opacity="1.000000" stroke="none" 
	d="
M322.416229,371.929596 
	C335.906708,371.680542 349.138702,371.680542 362.370697,371.680542 
	C362.700562,372.217407 363.030457,372.754272 363.360321,373.291138 
	C357.560455,381.287354 352.149963,389.605499 345.868347,397.203430 
	C336.716766,408.272736 325.944458,417.613922 313.838684,425.515869 
	C304.268250,431.762909 293.597717,433.327759 282.909668,435.030060 
	C287.521698,422.931824 292.031921,411.100586 296.827332,399.023682 
	C300.388336,402.458435 303.664154,406.138824 307.781647,410.764832 
	C313.010284,396.730957 317.584015,384.454803 322.416229,371.929596 
z"/>
<path fill="#FEFEFF" opacity="1.000000" stroke="none" 
	d="
M427.597290,198.197968 
	C430.108734,207.810104 432.634918,217.459061 434.412109,227.244080 
	C435.832062,235.062042 436.340302,243.045593 437.317261,251.510590 
	C425.402618,251.510590 414.182861,251.510590 402.469025,251.510590 
	C401.684906,243.381653 400.877686,235.013229 399.954895,226.225494 
	C408.989166,216.635315 418.138947,207.464417 427.597290,198.197968 
z"/>
<path fill="#DDF4FC" opacity="1.000000" stroke="none" 
	d="
M339.417480,266.800049 
	C300.237762,267.025482 261.318726,266.985138 222.399811,267.032867 
	C218.623520,267.037506 215.405075,266.561829 213.965332,262.065552 
	C218.385162,259.911163 222.867508,258.135590 228.065735,256.505463 
	C230.430313,256.768066 232.078934,256.986786 233.727661,256.987518 
	C270.123779,257.003540 306.519867,256.995422 342.916016,256.991882 
	C341.836731,260.180847 340.757477,263.369812 339.417480,266.800049 
z"/>
<path fill="#DDF3FC" opacity="1.000000" stroke="none" 
	d="
M327.210510,184.300690 
	C323.214386,185.391830 319.156677,186.410599 315.110535,187.473465 
	C313.373810,187.929703 311.661163,188.477539 309.561707,189.010193 
	C307.736969,176.867065 306.288116,164.697525 304.807465,152.260773 
	C322.798859,152.260773 340.674927,152.260773 359.730072,152.260773 
	C349.161377,162.825256 339.168213,172.814392 328.595886,183.100388 
	C327.689880,183.715332 327.363098,184.033432 327.036346,184.351532 
	C327.036346,184.351532 327.153595,184.246201 327.210510,184.300690 
z"/>
<path fill="#DDF3FB" opacity="1.000000" stroke="none" 
	d="
M306.508667,356.207550 
	C299.927460,349.919586 293.648499,343.308502 287.258301,336.806763 
	C281.117218,330.558502 274.860901,324.423523 269.021149,316.990601 
	C285.994080,316.990601 302.966980,316.990601 320.399475,316.988831 
	C316.160126,329.968781 311.461243,342.950500 306.508667,356.207550 
z"/>
<path fill="#FEFEFE" opacity="1.000000" stroke="none" 
	d="
M343.114990,256.716644 
	C306.519867,256.995422 270.123779,257.003540 233.727661,256.987518 
	C232.078934,256.986786 230.430313,256.768066 228.422577,256.460541 
	C236.608490,253.128403 245.153442,249.986618 254.559357,246.863861 
	C282.314148,246.904663 309.208008,246.926453 336.101868,246.948242 
	C338.256805,248.988297 340.531769,250.921280 342.500061,253.127792 
	C343.168976,253.877655 343.064850,255.317093 343.114990,256.716644 
z"/>
<path fill="#FDFEFE" opacity="1.000000" stroke="none" 
	d="
M259.958954,361.648987 
	C248.276031,361.982452 236.497971,361.826630 224.729324,362.090515 
	C220.628510,362.182465 219.313126,360.672882 218.905334,356.792603 
	C217.503799,343.456177 215.791473,330.152466 214.117157,316.427979 
	C222.299316,324.097321 230.594238,332.142181 238.814606,340.262512 
	C245.876465,347.238464 252.853180,354.300629 259.958954,361.648987 
z"/>
<path fill="#DCF2FA" opacity="1.000000" stroke="none" 
	d="
M335.967560,246.639832 
	C309.208008,246.926453 282.314148,246.904663 254.913132,246.821960 
	C273.509338,239.602310 292.593140,232.389740 311.762665,225.412781 
	C312.969513,224.973541 315.255493,225.945389 316.343292,226.987442 
	C322.952179,233.318283 329.358978,239.860062 335.967560,246.639832 
z"/>
<path fill="#D9F0F9" opacity="1.000000" stroke="none" 
	d="
M166.138428,103.130325 
	C157.448151,115.406364 148.780151,127.698357 140.023026,139.926529 
	C139.361404,140.850403 138.084091,141.875168 137.061646,141.909103 
	C131.316681,142.099808 125.562096,142.001038 118.912827,142.001038 
	C132.354721,125.709328 147.598083,112.974892 165.346802,102.665955 
	C165.911331,102.853256 166.024887,102.991791 166.138428,103.130325 
z"/>
<path fill="#D8EFF8" opacity="1.000000" stroke="none" 
	d="
M348.499756,102.253120 
	C360.177307,110.655411 371.854828,119.057693 384.034607,127.821342 
	C379.723572,131.895538 376.505432,134.936874 373.880005,137.418076 
	C365.395660,126.347542 356.742889,115.057289 348.145813,103.239113 
	C348.300934,102.558502 348.400360,102.405807 348.499756,102.253120 
z"/>
<path fill="#C1DAF1" opacity="1.000000" stroke="none" 
	d="
M326.621277,214.020645 
	C334.442383,221.584030 341.935089,229.279175 349.417603,236.984222 
	C350.914856,238.526016 352.373077,240.105667 354.048798,241.962280 
	C353.034882,243.584320 351.821503,244.911911 350.894012,245.926697 
	C341.462372,236.477890 332.226257,227.224991 322.141693,217.122101 
	C323.061920,216.463974 324.675598,215.309937 326.621277,214.020645 
z"/>
<path fill="#DDF3FB" opacity="1.000000" stroke="none" 
	d="
M110.549225,262.103394 
	C100.192474,266.352051 89.371986,270.520477 78.202103,274.813690 
	C77.620049,270.823425 77.387390,266.708405 77.122498,262.023102 
	C88.244789,262.023102 99.165138,262.023102 110.549225,262.103394 
z"/>
<path fill="#FDFEFE" opacity="1.000000" stroke="none" 
	d="
M390.626404,234.783630 
	C391.325439,240.206238 391.699249,245.752167 392.119354,251.985214 
	C385.787964,251.985214 380.216980,251.985214 374.156433,251.968597 
	C379.211639,246.270325 384.756409,240.588638 390.626404,234.783630 
z"/>
<path fill="#FEFEFF" opacity="1.000000" stroke="none" 
	d="
M327.385193,184.254395 
	C327.363098,184.033432 327.689880,183.715332 328.306091,183.210358 
	C328.308380,183.401413 328.021179,183.779343 327.385193,184.254395 
z"/>
<path fill="#D8EFF8" opacity="1.000000" stroke="none" 
	d="
M348.030029,102.924004 
	C347.637390,102.830780 347.416229,102.524750 347.195038,102.218719 
	C347.459961,102.139374 347.724854,102.060020 348.244751,102.116898 
	C348.400360,102.405807 348.300934,102.558502 348.030029,102.924004 
z"/>
<path fill="#D9F0F9" opacity="1.000000" stroke="none" 
	d="
M165.650787,102.489822 
	C165.911011,102.223549 166.318237,102.182175 166.725464,102.140793 
	C166.708649,102.400772 166.691849,102.660744 166.406738,103.025528 
	C166.024887,102.991791 165.911331,102.853256 165.650787,102.489822 
z"/>
<path fill="#FEFEFF" opacity="1.000000" stroke="none" 
	d="
M393.928833,361.997803 
	C389.296844,361.997803 385.148529,361.997803 381.488403,361.997803 
	C386.379974,345.631866 392.174591,329.676605 395.773407,313.240570 
	C399.386841,296.737885 400.812286,279.756104 403.275055,262.432404 
	C413.583649,262.432404 424.808929,262.432404 436.929779,262.432404 
	C436.539062,267.808289 436.385376,273.213531 435.717865,278.554504 
	C432.297638,305.920258 422.998535,331.142212 408.349823,354.530304 
	C404.872070,360.082855 401.131897,363.355682 393.928833,361.997803 
z"/>
<path fill="#FEFEFF" opacity="1.000000" stroke="none" 
	d="
M217.701324,399.275421 
	C222.141922,411.295898 226.462280,422.930878 231.137512,435.521545 
	C223.497314,433.657928 215.280899,432.829987 208.084732,429.674988 
	C187.582352,420.686218 161.345108,393.758667 151.232025,372.525146 
	C152.577362,372.336945 153.767685,372.027466 154.958588,372.025299 
	C172.264343,371.993927 189.571091,372.097168 206.875244,371.927002 
	C210.454285,371.891785 211.689301,373.088165 212.349426,376.564514 
	C213.774094,384.066956 215.800751,391.455017 217.701324,399.275421 
z"/>
<path fill="#FCFDFE" opacity="1.000000" stroke="none" 
	d="
M347.790100,410.766846 
	C356.450745,398.575836 365.067902,386.353302 373.844086,374.246033 
	C374.657867,373.123444 376.455292,372.167542 377.841217,372.102875 
	C383.152069,371.855042 388.481384,372.002594 395.216064,372.002594 
	C381.572998,388.327454 366.605133,401.292206 348.582947,411.218018 
	C348.089691,411.108643 347.790070,410.766846 347.790100,410.766846 
z"/>
<path fill="#FCFDFE" opacity="1.000000" stroke="none" 
	d="
M165.473190,411.480682 
	C147.684860,401.624756 132.678360,388.500519 118.772079,372.032196 
	C125.628662,372.032196 131.354324,371.896179 137.063141,372.145569 
	C138.222076,372.196198 139.614243,373.485626 140.396713,374.567261 
	C148.961105,386.406219 157.425735,398.317352 165.879822,410.671997 
	C165.719162,411.250336 165.596176,411.365509 165.473190,411.480682 
z"/>
<path fill="#FCFDFE" opacity="1.000000" stroke="none" 
	d="
M166.033905,410.970490 
	C166.378677,411.292999 166.531708,411.780121 166.684753,412.267273 
	C166.368851,412.141327 166.052963,412.015411 165.605133,411.685059 
	C165.596176,411.365509 165.719162,411.250336 166.033905,410.970490 
z"/>
<path fill="#FCFDFE" opacity="1.000000" stroke="none" 
	d="
M348.233337,411.284729 
	C347.838379,411.539337 347.299774,411.617828 346.761108,411.696289 
	C346.940430,411.429443 347.119751,411.162598 347.544556,410.831299 
	C347.790070,410.766846 348.089691,411.108643 348.233337,411.284729 
z"/>
<path fill="#074C71" opacity="1.000000" stroke="none" 
	d="
M360.593994,207.570068 
	C360.882568,210.090530 361.495148,212.620209 360.647949,214.487610 
	C360.187225,215.503128 356.452332,216.320312 355.597015,215.588181 
	C354.058197,214.270966 352.448517,211.431625 352.881012,209.743927 
	C353.838654,206.006897 356.893646,205.322006 360.593994,207.570068 
z"/>
<path fill="#074D71" opacity="1.000000" stroke="none" 
	d="
M423.990204,143.730133 
	C427.008575,147.273010 426.642761,150.503082 422.748474,151.871887 
	C421.102478,152.450439 418.180511,150.629974 416.471008,149.162933 
	C415.828491,148.611526 416.444122,145.065994 417.428589,144.486511 
	C419.124146,143.488419 421.557800,143.744263 423.990204,143.730133 
z"/>
</svg>